<?xml version="1.0" encoding="UTF-8"?>
<svg width="515px" height="404px" viewBox="0 0 515 404" version="1.1" xmlns="http://www.w3.org/2000/svg" xmlns:xlink="http://www.w3.org/1999/xlink">
    <!-- Generator: Sketch 64 (93537) - https://sketch.com -->
    <title>upload</title>
    <desc>Created with Sketch.</desc>
    <g id="Page-1" stroke="none" stroke-width="1" fill="none" fill-rule="evenodd">
        <g id="upload" fill="#000000" fill-rule="nonzero">
            <polygon id="Path" points="257.498 127.808 159.151 225.941 187.311 254.101 226.778 214.421 236.164 190.741 236.164 403.221 278.831 403.221 278.831 190.955 287.578 214.208 327.684 254.101 355.631 226.155"></polygon>
            <path d="M396.164,105.195 L394.031,105.195 C371.098,42.893 311.943,1.335 245.556,0.887 C157.546,0.293 85.718,71.158 85.125,159.168 L85.125,169.195 C37.643,169.666 -0.466,208.54 0.000680717094,256.022 C0.476,303.504 39.35,341.613 86.832,341.142 L193.499,341.142 L193.499,298.475 L86.831,298.475 C62.972,298.475 43.631,279.134 43.631,255.275 C43.631,231.416 62.972,212.075 86.831,212.075 L129.498,213.142 C129.498,213.142 127.578,169.195 127.578,159.169 C127.109,104.197 165.139,56.381 218.807,44.465 C281.608,30.521 343.821,70.128 357.765,132.929 L362.458,152.982 L382.511,149.355 C387.007,148.439 391.577,147.939 396.164,147.862 C437.755,147.862 471.471,181.578 471.471,223.169 C471.471,264.76 437.755,298.476 396.164,298.476 L321.497,298.476 L321.497,341.146319 L396.164,341.146319 C461.293,341.125 514.086,288.332 514.104005,223.203 C514.123,158.046 461.319,105.213 396.164,105.195 Z" id="Path"></path>
        </g>
    </g>
</svg>