<svg enable-background="new 0 0 512 512" viewBox="0 0 512 512" xmlns="http://www.w3.org/2000/svg"><path d="m125.614 201.836c-33.182 0-60.178 26.995-60.178 60.178s26.996 60.178 60.178 60.178 60.178-26.995 60.178-60.178-26.995-60.178-60.178-60.178zm0 90.268c-16.592 0-30.091-13.498-30.091-30.091 0-16.592 13.498-30.091 30.091-30.091 16.592 0 30.091 13.498 30.091 30.091s-13.498 30.091-30.091 30.091z"/><path d="m267.05 217.2h60.17v30.09h-60.17z"/><path d="m357.31 217.2h60.17v30.09h-60.17z"/><path d="m267.05 277.38h60.17v30.09h-60.17z"/><path d="m357.31 277.38h60.17v30.09h-60.17z"/><path d="m267.05 98.23h60.17v30.09h-60.17z"/><path d="m357.31 98.23h60.17v30.09h-60.17z"/><path d="m267.05 158.4h60.17v30.09h-60.17z"/><path d="m357.31 158.4h60.17v30.09h-60.17z"/><path d="m451.587 30.14v-30.14h-220.653v30.293h-61.18v114.374c-13.737-5.184-28.61-8.029-44.139-8.029-69.133 0-125.377 56.244-125.377 125.377 0 28.318 18.695 74.747 57.153 141.938 27.554 48.137 55.502 89.337 55.781 89.748l12.441 18.299 12.441-18.299c.224-.331 18.387-27.106 39.838-62.651h333.868v-400.706h.001zm-325.973 427.873c-34.842-53.693-95.289-155.3-95.289-195.999 0-52.543 42.746-95.289 95.289-95.289 52.544 0 95.29 42.746 95.29 95.289 0 40.699-60.446 142.306-95.29 195.999zm356.061-57.051h-124.362v-62.186h-30.087v62.186h-131.688c37.3-65.572 55.454-111.053 55.454-138.948 0-41.376-20.152-78.129-51.151-100.977v-100.656h61.18v-30.293h160.48v30.037l60.174.205z"/></svg>